<svg width="30" height="29" viewBox="0 0 30 29" fill="none" xmlns="http://www.w3.org/2000/svg">
<g id="truck-speed-svgrepo-com 1" clip-path="url(#clip0_813_6764)">
<path id="Vector" fill-rule="evenodd" clip-rule="evenodd" d="M13.1984 21.0711C13.1821 21.863 12.5296 22.4933 11.7376 22.4824C10.9455 22.4716 10.3106 21.8236 10.316 21.0315C10.3213 20.2395 10.9649 19.6001 11.757 19.6C12.1433 19.6039 12.5122 19.7611 12.7824 20.037C13.0528 20.3128 13.2024 20.6848 13.1984 21.0711Z" stroke="#A8A8A8" stroke-linecap="round" stroke-linejoin="round"/>
<path id="Vector_2" fill-rule="evenodd" clip-rule="evenodd" d="M24.5124 21.0711C24.496 21.863 23.8436 22.4933 23.0515 22.4824C22.2594 22.4716 21.6246 21.8236 21.6299 21.0315C21.6353 20.2395 22.2788 19.6001 23.071 19.6C23.4572 19.6039 23.8261 19.7611 24.0964 20.037C24.3667 20.3128 24.5164 20.6848 24.5124 21.0711Z" stroke="#A8A8A8" stroke-linecap="round" stroke-linejoin="round"/>
<path id="Vector_3" d="M20.3254 20.7745C20.7846 20.7745 21.1569 20.4022 21.1569 19.943C21.1569 19.4837 20.7846 19.1114 20.3254 19.1114V20.7745ZM14.2351 19.1114C13.7759 19.1114 13.4036 19.4837 13.4036 19.943C13.4036 20.4022 13.7759 20.7745 14.2351 20.7745V19.1114ZM19.4982 19.943C19.4982 20.4022 19.8704 20.7745 20.3297 20.7745C20.789 20.7745 21.1613 20.4022 21.1613 19.943H19.4982ZM21.1613 14.1035C21.1613 13.6442 20.789 13.2719 20.3297 13.2719C19.8704 13.2719 19.4982 13.6442 19.4982 14.1035H21.1613ZM20.3297 19.1114C19.8704 19.1114 19.4982 19.4837 19.4982 19.943C19.4982 20.4022 19.8704 20.7745 20.3297 20.7745V19.1114ZM20.601 20.7745C21.0603 20.7745 21.4326 20.4022 21.4326 19.943C21.4326 19.4837 21.0603 19.1114 20.601 19.1114V20.7745ZM25.1879 19.1117C24.7288 19.1216 24.3647 19.5018 24.3747 19.961C24.3846 20.4201 24.7649 20.7842 25.224 20.7743L25.1879 19.1117ZM27.6393 17.3475L28.4707 17.3329C28.4699 17.29 28.4658 17.2473 28.4585 17.205L27.6393 17.3475ZM27.8943 13.961C27.8155 13.5085 27.3849 13.2055 26.9325 13.2843C26.48 13.363 26.1771 13.7935 26.2557 14.2459L27.8943 13.961ZM20.3253 8.08103C19.8661 8.08103 19.4938 8.45332 19.4938 8.91255C19.4938 9.37179 19.8661 9.74408 20.3253 9.74408V8.08103ZM24.1856 8.91255V9.7441L24.1909 9.74405L24.1856 8.91255ZM26.6231 11.508L25.7924 11.4726C25.7898 11.5322 25.7937 11.5919 25.8039 11.6506L26.6231 11.508ZM26.2557 14.2459C26.3344 14.6984 26.7652 15.0014 27.2176 14.9227C27.6701 14.8439 27.9731 14.4133 27.8943 13.961L26.2557 14.2459ZM21.1568 8.91255C21.1568 8.45332 20.7846 8.08103 20.3253 8.08103C19.8661 8.08103 19.4938 8.45332 19.4938 8.91255H21.1568ZM19.4938 14.1035C19.4938 14.5627 19.8661 14.935 20.3253 14.935C20.7846 14.935 21.1568 14.5627 21.1568 14.1035H19.4938ZM19.4938 8.91255C19.4938 9.37179 19.8661 9.74408 20.3253 9.74408C20.7846 9.74408 21.1568 9.37179 21.1568 8.91255H19.4938ZM20.3253 8.0256L19.4938 8.02028V8.0256H20.3253ZM19.1751 6.83153L19.1799 6.00001H19.1751V6.83153ZM8.81402 6.83153V6L8.81005 6.00002L8.81402 6.83153ZM7.66278 8.02338H8.49431L8.49429 8.01959L7.66278 8.02338ZM7.66278 18.75L8.4943 18.7538V18.75H7.66278ZM8.81402 19.9419L8.81005 20.7734H8.81402V19.9419ZM9.62584 20.7734C10.0851 20.7734 10.4574 20.4011 10.4574 19.9419C10.4574 19.4826 10.0851 19.1103 9.62584 19.1103V20.7734ZM20.3275 13.2708C19.8683 13.2708 19.496 13.6431 19.496 14.1024C19.496 14.5616 19.8683 14.9339 20.3275 14.9339V13.2708ZM27.0771 14.9339C27.5364 14.9339 27.9087 14.5616 27.9087 14.1024C27.9087 13.6431 27.5364 13.2708 27.0771 13.2708V14.9339ZM1.69578 8.2174C1.23654 8.2174 0.864258 8.58969 0.864258 9.04892C0.864258 9.50816 1.23654 9.88045 1.69578 9.88045V8.2174ZM5.07924 9.88045C5.53847 9.88045 5.91076 9.50816 5.91076 9.04892C5.91076 8.58969 5.53847 8.2174 5.07924 8.2174V9.88045ZM2.77676 11.5435C2.31753 11.5435 1.94524 11.9158 1.94524 12.375C1.94524 12.8342 2.31753 13.2065 2.77676 13.2065V11.5435ZM4.93871 13.2065C5.39795 13.2065 5.77024 12.8342 5.77024 12.375C5.77024 11.9158 5.39795 11.5435 4.93871 11.5435V13.2065ZM3.43615 14.8696C2.97692 14.8696 2.60463 15.2419 2.60463 15.7011C2.60463 16.1603 2.97692 16.5326 3.43615 16.5326V14.8696ZM4.93871 16.5326C5.39795 16.5326 5.77024 16.1603 5.77024 15.7011C5.77024 15.2419 5.39795 14.8696 4.93871 14.8696V16.5326ZM20.3254 19.1114H14.2351V20.7745H20.3254V19.1114ZM21.1613 19.943V14.1035H19.4982V19.943H21.1613ZM20.3297 20.7745H20.601V19.1114H20.3297V20.7745ZM25.224 20.7743C27.0712 20.7342 28.503 19.1759 28.4707 17.3329L26.8078 17.3621C26.8249 18.3291 26.0803 19.0923 25.1879 19.1117L25.224 20.7743ZM28.4585 17.205L27.8943 13.961L26.2557 14.2459L26.82 17.49L28.4585 17.205ZM20.3253 9.74408L24.1856 9.7441V8.08103H20.3253V9.74408ZM24.1909 9.74405C24.6201 9.74128 25.0363 9.91892 25.3409 10.2433L26.5532 9.10482C25.9364 8.44812 25.0792 8.07523 24.1801 8.08105L24.1909 9.74405ZM25.3409 10.2433C25.6464 10.5686 25.812 11.0126 25.7924 11.4726L27.4539 11.5435C27.4924 10.6424 27.1692 9.76071 26.5532 9.10482L25.3409 10.2433ZM25.8039 11.6506L26.2557 14.2459L27.8943 13.961L27.4424 11.3654L25.8039 11.6506ZM19.4938 8.91255V14.1035H21.1568V8.91255H19.4938ZM21.1568 8.91255V8.0256H19.4938V8.91255H21.1568ZM21.1568 8.03092C21.1603 7.50213 20.9588 6.98962 20.5904 6.60722L19.3927 7.76094C19.4558 7.82648 19.4943 7.91942 19.4938 8.02028L21.1568 8.03092ZM20.5904 6.60722C20.2214 6.2241 19.7145 6.00307 19.1799 6.00001L19.1705 7.66304C19.2499 7.6635 19.3302 7.69614 19.3927 7.76094L20.5904 6.60722ZM19.1751 6.00001L8.81402 6V7.66305H19.1751V6.00001ZM8.81005 6.00002C8.27587 6.00257 7.76899 6.22284 7.39965 6.60521L8.5958 7.76061C8.65827 7.69595 8.73866 7.66342 8.818 7.66304L8.81005 6.00002ZM7.39965 6.60521C7.031 6.98686 6.82885 7.49871 6.83127 8.02718L8.49429 8.01959C8.49384 7.91879 8.53265 7.82599 8.5958 7.76061L7.39965 6.60521ZM6.83126 8.02338V18.75H8.4943L8.49431 8.02338H6.83126ZM6.83127 18.7462C6.82885 19.2746 7.031 19.7865 7.39965 20.1681L8.5958 19.0128C8.53265 18.9474 8.49385 18.8546 8.4943 18.7538L6.83127 18.7462ZM7.39965 20.1681C7.76899 20.5505 8.27587 20.7708 8.81005 20.7734L8.818 19.1103C8.73866 19.11 8.65825 19.0774 8.5958 19.0128L7.39965 20.1681ZM8.81402 20.7734H9.62584V19.1103H8.81402V20.7734ZM20.3275 14.9339H27.0771V13.2708H20.3275V14.9339ZM1.69578 9.88045H5.07924V8.2174H1.69578V9.88045ZM2.77676 13.2065H4.93871V11.5435H2.77676V13.2065ZM3.43615 16.5326H4.93871V14.8696H3.43615V16.5326Z" fill="#A8A8A8"/>
</g>
<defs>
<clipPath id="clip0_813_6764">
<rect width="28.8261" height="28.8261" fill="white" transform="translate(0.586914)"/>
</clipPath>
</defs>
</svg>
