<svg width="20" height="21" viewBox="0 0 20 21" fill="none" xmlns="http://www.w3.org/2000/svg">
<g id="print-svgrepo-com 1">
<path id="Vector" d="M5.83333 14.4928H4.16667C3.24619 14.4928 2.5 13.7466 2.5 12.8261V9.49276C2.5 8.11205 3.61929 6.99276 5 6.99276H5.83333M5.83333 14.4928V11.9928H14.1667V14.4928M5.83333 14.4928V15.3261C5.83333 16.2466 6.57952 16.9928 7.5 16.9928H12.5C13.4205 16.9928 14.1667 16.2466 14.1667 15.3261V14.4928M5.83333 6.99276V5.32609C5.83333 4.40562 6.57952 3.65942 7.5 3.65942H12.5C13.4205 3.65942 14.1667 4.40562 14.1667 5.32609V6.99276M5.83333 6.99276H14.1667M14.1667 14.4928H15.8333C16.7538 14.4928 17.5 13.7466 17.5 12.8261V9.49276C17.5 8.11205 16.3807 6.99276 15 6.99276H14.1667M12.5 9.49276H14.1667" stroke="#DF4584" stroke-linecap="round" stroke-linejoin="round"/>
</g>
</svg>
