<svg width="22" height="29" viewBox="0 0 22 29" fill="none" xmlns="http://www.w3.org/2000/svg">
<path opacity="0.5" d="M11 13C12.1046 13 13 12.1046 13 11C13 9.89543 12.1046 9 11 9C9.89543 9 9 9.89543 9 11C9 12.1046 9.89543 13 11 13Z" stroke="#292D32" stroke-width="1.5" stroke-miterlimit="10" stroke-linecap="round" stroke-linejoin="round"/>
<path opacity="0.5" d="M5 13.9C3.1 15.4 1.6 17.5 1 20H3.3C4.8 20 5.9 18.6 5.5 17.2C5.1 15.8 4.9 14.4 4.9 12.9C5 7.4 7.5 2.7 11 1C14.5 2.7 17 7.4 17 12.8C17 14.3 16.8 15.8 16.4 17.1C16 18.5 17.1 19.9 18.6 19.9H21C20.4 17.4 18.9 15.2 17 13.8" stroke="#292D32" stroke-width="1.5" stroke-miterlimit="10" stroke-linecap="round" stroke-linejoin="round"/>
<path opacity="0.5" d="M11 20V28" stroke="#292D32" stroke-width="1.5" stroke-miterlimit="10" stroke-linecap="round" stroke-linejoin="round"/>
<path opacity="0.5" d="M8 22V26" stroke="#292D32" stroke-width="1.5" stroke-miterlimit="10" stroke-linecap="round" stroke-linejoin="round"/>
<path opacity="0.5" d="M14 22V26" stroke="#292D32" stroke-width="1.5" stroke-miterlimit="10" stroke-linecap="round" stroke-linejoin="round"/>
</svg>
