<svg width="24" height="24" viewBox="0 0 24 24" fill="none" xmlns="http://www.w3.org/2000/svg">
<g clip-path="url(#clip0_18_12810)">
<path d="M23.7921 8.18691L12.2837 0.077131C12.078 -0.0257103 11.8233 -0.0257103 11.6715 0.077131L0.197339 8.2016C0.0798058 8.28975 0.00634766 8.43667 0.00634766 8.61297V23.4858C0.00634766 23.7943 0.212031 23.9951 0.515657 23.9951H4.60972C4.91825 23.9951 5.11903 23.7894 5.11903 23.4858V14.186H18.8802V23.4858C18.8802 23.7943 19.0859 23.9951 19.3895 23.9951H23.4836C23.7382 23.9951 23.9929 23.7894 23.9929 23.4858V8.61786C24.0027 8.42687 23.9243 8.27506 23.7921 8.18691ZM11.98 1.10065L21.8528 8.10366H2.05338L11.98 1.10065ZM22.9302 22.9765H19.8596V13.6767C19.8596 13.3682 19.654 13.1674 19.3503 13.1674H4.56075C4.25223 13.1674 4.05144 13.3731 4.05144 13.6767V22.9765H0.980892V9.12717H22.9302V22.9765Z" fill="#AA00FF"/>
<path d="M6.75977 24H17.1467V16.0763H6.75977V24ZM7.78328 17.0998H11.466V18.9412H12.4895V17.0998H16.1232V22.9765H7.78328V17.0998Z" fill="#AA00FF"/>
</g>
<defs>
<clipPath id="clip0_18_12810">
<rect width="24" height="24" fill="white"/>
</clipPath>
</defs>
</svg>
