<svg width="28" height="29" viewBox="0 0 28 29" fill="none" xmlns="http://www.w3.org/2000/svg">
<path fill-rule="evenodd" clip-rule="evenodd" d="M9.02794 16.0686C8.29582 16.0686 7.70105 15.4738 7.70105 14.7417C7.70105 14.0118 8.29582 13.417 9.02794 13.417C9.76005 13.417 10.3548 14.0118 10.3548 14.7417C10.3548 15.4738 9.76005 16.0686 9.02794 16.0686ZM14.1862 16.0686C13.4541 16.0686 12.8594 15.4738 12.8594 14.7417C12.8594 14.0118 13.4541 13.417 14.1862 13.417C14.9184 13.417 15.5131 14.0118 15.5131 14.7417C15.5131 15.4738 14.9184 16.0686 14.1862 16.0686ZM18.0178 14.7417C18.0178 15.4738 18.6126 16.0686 19.3447 16.0686C20.0768 16.0686 20.6716 15.4738 20.6716 14.7417C20.6716 14.0118 20.0768 13.417 19.3447 13.417C18.6126 13.417 18.0178 14.0118 18.0178 14.7417Z" fill="#200E32"/>
<path fill-rule="evenodd" clip-rule="evenodd" d="M13.9386 3.13477C7.34152 3.13477 2.56116 8.52388 2.56116 14.5066C2.56116 16.4171 3.11754 18.3833 4.09405 20.18C4.27573 20.4768 4.29844 20.851 4.17354 21.2046L3.41277 23.7519C3.24244 24.366 3.76476 24.8197 4.34386 24.6378L6.63752 23.9566C7.26204 23.7519 7.75029 24.0123 8.32939 24.366C9.98718 25.3428 12.0538 25.8443 13.9159 25.8443C19.5479 25.8443 25.2707 21.4889 25.2707 14.4725C25.2707 8.42153 20.3882 3.13477 13.9386 3.13477Z" stroke="#200E32" stroke-width="1.70322" stroke-linecap="round" stroke-linejoin="round"/>
</svg>
