<svg width="28" height="29" viewBox="0 0 28 29" fill="none" xmlns="http://www.w3.org/2000/svg">
<path fill-rule="evenodd" clip-rule="evenodd" d="M13.7571 24.5421C11.2924 23.0252 8.99959 21.24 6.9196 19.2183C5.45727 17.7624 4.34401 15.9874 3.6651 14.0294C2.44338 10.2311 3.87043 5.88285 7.86412 4.596C9.96305 3.9203 12.2554 4.30649 14.0241 5.63378C15.7934 4.30811 18.085 3.92205 20.184 4.596C24.1777 5.88285 25.615 10.2311 24.3933 14.0294C23.7144 15.9874 22.6011 17.7624 21.1388 19.2183C19.0588 21.24 16.7659 23.0252 14.3013 24.5421L14.0343 24.7081L13.7571 24.5421Z" stroke="#200E32" stroke-width="1.70322" stroke-linecap="round" stroke-linejoin="round"/>
<path d="M18.2745 8.87109C19.4842 9.2575 20.3436 10.3435 20.451 11.6212" stroke="#200E32" stroke-width="1.70322" stroke-linecap="round" stroke-linejoin="round"/>
</svg>
